# xmcd
#
# Track frame offsets:
#  183
#  8415
#  14533
#  31205
#  43908
#  63535
#  82365
#  104043
#  111195
#  133753
#  151980
#  166455
#  199595
#  205945
#
# Disc length: 3318 seconds
#
# Revision: 0
# Processed by: cddbd v1.4PL0 Copyright (c) Steve Scherf et al.
# Submitted via: jm 0.1
#
DISCID=c30cf40e
DTITLE=Various Artist - Unforgettable Classics Collection - The most unforgettable classics ever
DYEAR=1900
DGENRE=country
TTITLE0=Charpentier - Prelude from Te Deum
TTITLE1=Mozart - Finch'lan dal vino - Don Giovanni
TTITLE2=Vivaldi  - The Hunt violin concerto
TTITLE3=Handel - The arrival of the Queen of Sheba
TTITLE4=Bach - Air on the G string - Suite No. 3
TTITLE5=Grieg - Peer Gynt - Monring
TTITLE6=Canteloube - Bailero - Songs of the Auvegne
TTITLE7=Tchaikovsky - Dance of the Sugar Plum Fairy - The Nutcracker
TTITLE8=Massenet - Meditation - Thais
TTITLE9=Prokofiev - Montagues and Capulets - Romeo and Juliet
TTITLE10=Faure - Pie Jesu - Requiem
TTITLE11=Albanoni - Adagio for Strings
TTITLE12=Rimsky-Korsakov - The Flight of the Bumble-Bee
TTITLE13=Offenbach - Orpheus in the Underworld
EXTD=
EXTT0=
EXTT1=
EXTT2=
EXTT3=
EXTT4=
EXTT5=
EXTT6=
EXTT7=
EXTT8=
EXTT9=
EXTT10=
EXTT11=
EXTT12=
EXTT13=
PLAYORDER=
